<svg xmlns:dc="http://purl.org/dc/elements/1.1/" xmlns:cc="http://creativecommons.org/ns#" xmlns:rdf="http://www.w3.org/1999/02/22-rdf-syntax-ns#" xmlns:svg="http://www.w3.org/2000/svg" xmlns="http://www.w3.org/2000/svg" xmlns:sodipodi="http://sodipodi.sourceforge.net/DTD/sodipodi-0.dtd" xmlns:inkscape="http://www.inkscape.org/namespaces/inkscape" width="100" height="100" id="svg2" version="1.1" inkscape:version="0.48.4 r9939" sodipodi:docname="eject.svg" viewBox="5.0 -10.0 100 135.0">
  <defs id="defs4"/>
  <sodipodi:namedview id="base" pagecolor="#ffffff" bordercolor="#666666" borderopacity="1.0" inkscape:pageopacity="0.0" inkscape:pageshadow="2" inkscape:zoom="2.1247376" inkscape:cx="93.767237" inkscape:cy="16.878103" inkscape:document-units="px" inkscape:current-layer="layer1" showgrid="false" inkscape:window-width="1366" inkscape:window-height="705" inkscape:window-x="-8" inkscape:window-y="-8" inkscape:window-maximized="1"/>
  <metadata id="metadata7">
    <rdf:RDF>
      <cc:Work rdf:about="">
        <dc:format>image/svg+xml</dc:format>
        <dc:type rdf:resource="http://purl.org/dc/dcmitype/StillImage"/>
        <dc:title/>
      </cc:Work>
    </rdf:RDF>
  </metadata>
  <g inkscape:label="Layer 1" inkscape:groupmode="layer" id="layer1" transform="translate(0,-952.36218)">
    <path style="font-size:medium;font-style:normal;font-variant:normal;font-weight:normal;font-stretch:normal;text-indent:0;text-align:start;text-decoration:none;line-height:normal;letter-spacing:normal;word-spacing:normal;text-transform:none;direction:ltr;block-progression:tb;writing-mode:lr-tb;text-anchor:start;baseline-shift:baseline;color:#000000;fill:#000000;fill-opacity:1;fill-rule:nonzero;stroke:none;stroke-width:10;marker:none;visibility:visible;display:inline;overflow:visible;enable-background:accumulate;font-family:Sans;-inkscape-font-specification:Sans" d="M 8.15625 15.3125 A 3.5821414 3.5821414 0 0 0 5 18.875 L 5 81.09375 A 3.5821414 3.5821414 0 0 0 11.125 83.65625 L 42.1875 52.53125 A 3.5821414 3.5821414 0 0 0 43.25 49.9375 A 3.5821414 3.5821414 0 0 0 42.1875 47.46875 L 11.125 16.34375 A 3.5821414 3.5821414 0 0 0 8.53125 15.3125 A 3.5821414 3.5821414 0 0 0 8.15625 15.3125 z M 48.5625 15.53125 A 3.5821414 3.5821414 0 0 0 45.34375 19.09375 L 45.34375 80.875 A 3.5821414 3.5821414 0 0 0 48.9375 84.46875 L 65.0625 84.46875 A 3.5821414 3.5821414 0 0 0 68.625 80.875 L 68.625 19.09375 A 3.5821414 3.5821414 0 0 0 65.0625 15.53125 L 48.9375 15.53125 A 3.5821414 3.5821414 0 0 0 48.5625 15.53125 z M 74.96875 15.53125 A 3.5821414 3.5821414 0 0 0 71.71875 19.09375 L 71.71875 80.875 A 3.5821414 3.5821414 0 0 0 75.3125 84.46875 L 91.4375 84.46875 A 3.5821414 3.5821414 0 0 0 95 80.875 L 95 19.09375 A 3.5821414 3.5821414 0 0 0 91.4375 15.53125 L 75.3125 15.53125 A 3.5821414 3.5821414 0 0 0 74.96875 15.53125 z M 52.5 22.65625 L 61.46875 22.65625 L 61.46875 77.3125 L 52.5 77.3125 L 52.5 22.65625 z M 78.875 22.65625 L 87.84375 22.65625 L 87.84375 77.3125 L 78.875 77.3125 L 78.875 22.65625 z M 12.15625 27.53125 L 34.59375 50 L 12.15625 72.4375 L 12.15625 27.53125 z " transform="translate(0,952.36218)" id="path3779"/>
  </g>
<text x="0" y="117.5" font-size="5.0" font-weight="bold" font-family="Helvetica Neue, Helvetica, Arial-Unicode, Arial, Sans-serif" fill="#000000">Created by baabullah hasan</text><text x="0" y="122.5" font-size="5.0" font-weight="bold" font-family="Helvetica Neue, Helvetica, Arial-Unicode, Arial, Sans-serif" fill="#000000">from the Noun Project</text></svg>